<svg height="512pt" viewBox="0 -106 512 512" width="512pt" xmlns="http://www.w3.org/2000/svg"><path d="m7.5 42.734375h497v66.738281h-497zm0 0" fill="#a7a7a7"/><path d="m474.5 42.734375h30v66.738281h-30zm0 0" fill="#797979"/><path d="m68.144531 42.734375h375.710938v66.738281h-375.710938zm0 0" fill="#4c4c4c"/><path d="m413.855469 42.734375h30v66.738281h-30zm0 0" fill="#313131"/><path d="m283.773438 46.5 205.609374 205.609375-40.859374 40.859375-205.605469-205.609375zm0 0" fill="#4c4c4c"/><path d="m325.347656 88.074219h-26.253906v13.746093l170.292969 170.292969 20-20zm0 0" fill="#3f3f3f"/><path d="m276.722656 67.792969-183.382812 183.382812-40.859375-40.859375 183.382812-183.382812zm0 0" fill="#4c4c4c"/><path d="m275.5625 7.5h-39.125c-12.40625 0-23.867188 6.617188-30.070312 17.359375l-19.5625 33.882813c-6.203126 10.742187-6.203126 23.980468 0 34.722656l19.5625 33.882812c6.203124 10.742188 17.664062 17.359375 30.070312 17.359375h39.125c12.40625 0 23.867188-6.617187 30.070312-17.359375l19.5625-33.882812c6.203126-10.742188 6.203126-23.980469 0-34.722656l-19.5625-33.882813c-6.203124-10.742187-17.664062-17.359375-30.070312-17.359375zm0 0" fill="#313131"/><path d="m325.195312 58.742188-19.5625-33.882813c-6.203124-10.742187-17.664062-17.359375-30.070312-17.359375h-38.226562l22 137.207031h16.226562c12.40625 0 23.867188-6.617187 30.070312-17.359375l19.5625-33.882812c6.203126-10.742188 6.203126-23.976563 0-34.722656zm0 0" fill="#4c4c4c"/><path d="m325.195312 58.742188-19.5625-33.882813c-6.203124-10.742187-17.664062-17.359375-30.070312-17.359375h-30c12.40625 0 23.867188 6.617188 30.070312 17.359375l19.5625 33.882813c6.203126 10.742187 6.203126 23.980468 0 34.722656l-19.5625 33.882812c-3.875 6.710938-9.796874 11.808594-16.722656 14.691406l.425782 2.667969h16.226562c12.40625 0 23.867188-6.617187 30.070312-17.359375l19.5625-33.882812c6.203126-10.742188 6.203126-23.980469 0-34.722656zm0 0" fill="#3f3f3f"/><path d="m504.5 35.234375h-184.21875l-8.152344-14.125c-7.519531-13.019531-21.53125-21.109375-36.566406-21.109375h-39.125c-15.035156 0-29.046875 8.089844-36.5625 21.109375l-8.15625 14.125h-62.308594c-4.144531 0-7.5 3.355469-7.5 7.5 0 4.140625 3.355469 7.5 7.5 7.5h53.648438l-2.746094 4.757813c-3.996094 6.917968-5.84375 14.726562-5.59375 22.480468l-24.539062 24.539063c-.238282-.023438-.480469-.039063-.726563-.039063h-73.808594v-51.742187h23.765625c4.140625 0 7.5-3.355469 7.5-7.5 0-4.140625-3.359375-7.5-7.5-7.5h-91.910156c-4.140625 0-7.5 3.359375-7.5 7.5v66.742187c0 4.144532 3.359375 7.5 7.5 7.5h127.714844l-88.039063 88.042969c-1.40625 1.40625-2.199219 3.3125-2.199219 5.300781 0 1.988282.792969 3.898438 2.199219 5.304688l40.859375 40.859375c1.40625 1.40625 3.3125 2.195312 5.300782 2.195312 1.988281 0 3.898437-.789062 5.304687-2.195312l112.628906-112.632813c7.175781 5.324219 15.976563 8.359375 25.167969 8.359375h39.125c6.195312 0 12.210938-1.394531 17.675781-3.917969l149.984375 149.984376c1.40625 1.40625 3.3125 2.199218 5.304688 2.199218 1.988281 0 3.894531-.792968 5.300781-2.199218l40.859375-40.859376c2.929688-2.929687 2.929688-7.675781 0-10.605468l-129.835938-129.832032h5.480469c4.144531 0 7.5-3.359374 7.5-7.5 0-4.144531-3.355469-7.5-7.5-7.5h-19.472656c-.320313 0-.632813.027344-.941406.0625l-14.25-14.25c3.121093-10.882812 1.808593-22.773437-3.976563-32.796874l-2.75-4.757813h107.414063v51.742187h-36.023438c-4.140625 0-7.5 3.355469-7.5 7.5 0 4.140626 3.359375 7.5 7.5 7.5h104.167969c4.140625 0 7.5-3.359374 7.5-7.5v-66.742187c0-4.144531-3.359375-7.5-7.5-7.5zm-489.5 15h45.644531v51.742187h-45.644531zm78.335938 190.335937-30.25-30.25 115.804687-115.804687c.441406.910156.910156 1.8125 1.421875 2.699219l19.5625 33.882812c.355469.621094.738281 1.214844 1.125 1.808594zm119.527343-116.972656-19.5625-33.882812c-4.847656-8.394532-4.847656-18.824219 0-27.222656l19.5625-33.882813c3.929688-6.804687 10.613281-11.519531 18.167969-13.0625l19.507812 121.660156h-14.101562c-9.695312 0-18.726562-5.214843-23.574219-13.609375zm52.867188 13.609375-19.59375-122.207031h29.425781c9.695312 0 18.726562 5.214844 23.574219 13.609375l19.5625 33.882813c4.847656 8.398437 4.847656 18.828124 0 27.222656l-19.5625 33.882812c-4.847657 8.394532-13.878907 13.609375-23.574219 13.609375zm182.796875 145.160157-142.835938-142.835938c2.464844-2.503906 4.640625-5.320312 6.433594-8.433594l16.703125-28.933594 149.949219 149.949219zm48.472656-180.390626h-45.644531v-51.742187h45.644531zm0 0" fill="#110f0e"/></svg>